<?xml version="1.0" standalone="no"?>
<!DOCTYPE svg PUBLIC "-//W3C//DTD SVG 20010904//EN"
 "http://www.w3.org/TR/2001/REC-SVG-20010904/DTD/svg10.dtd">
<svg version="1.0" xmlns="http://www.w3.org/2000/svg"
 width="512.000000pt" height="512.000000pt" viewBox="0 0 512.000000 512.000000"
 preserveAspectRatio="xMidYMid meet">

<g transform="translate(0.000000,512.000000) scale(0.100000,-0.100000)"
fill="#000000" stroke="none">
<path d="M1043 5101 c-73 -25 -136 -80 -170 -149 -26 -52 -28 -68 -31 -189
l-4 -133 -82 -38 c-426 -200 -719 -629 -752 -1103 -8 -108 7 -157 52 -178 18
-8 205 -11 655 -11 684 0 672 -1 697 55 17 36 17 1273 1 1309 -7 14 -28 33
-48 42 -32 16 -48 16 -156 6 -66 -7 -131 -15 -144 -18 l-23 -7 3 87 c4 84 5
89 37 117 l32 29 1450 0 1449 0 3 -342 c3 -389 4 -394 88 -478 84 -84 89 -85
478 -88 l342 -3 0 -1871 0 -1870 -34 -34 -34 -34 -1871 0 -1871 0 -32 29 -33
29 -5 470 c-5 515 -2 491 -68 519 -30 12 -38 12 -70 -4 -20 -10 -43 -29 -49
-43 -10 -19 -13 -133 -11 -500 l3 -475 29 -58 c19 -39 44 -71 78 -98 95 -75
-62 -70 2048 -67 l1895 3 46 21 c60 28 125 93 153 153 l21 46 3 1945 c1 1070
0 1956 -3 1970 -7 26 -867 898 -939 951 l-39 29 -1521 0 c-1435 -1 -1524 -2
-1573 -19z m3505 -889 c-123 -2 -237 0 -254 3 -17 3 -42 17 -55 31 -24 25 -24
27 -27 277 l-3 252 281 -280 280 -280 -222 -3z m-3331 -709 c-2 -2 -231 -2
-509 -1 l-504 3 13 80 c26 156 97 327 194 465 164 234 440 406 724 453 l80 13
3 -504 c1 -278 1 -507 -1 -509z"/>
<path d="M1631 4346 c-51 -28 -50 -20 -51 -633 l0 -573 -571 0 c-400 0 -577
-3 -592 -11 -44 -23 -57 -50 -57 -124 0 -166 53 -374 140 -550 303 -611 1019
-890 1653 -645 620 240 968 910 807 1551 -130 514 -553 898 -1085 984 -111 18
-212 19 -244 1z m289 -213 c140 -28 341 -121 440 -203 l35 -29 -307 -308 -308
-308 0 437 0 438 33 -6 c17 -3 66 -12 107 -21z m684 -462 c190 -290 243 -616
150 -939 -142 -496 -620 -838 -1129 -809 -432 25 -801 281 -975 676 -32 74
-73 221 -83 299 l-5 42 563 0 c310 0 574 4 587 9 13 5 203 189 423 409 294
294 403 397 412 390 7 -6 32 -40 57 -77z"/>
<path d="M3315 3721 c-77 -32 -76 -152 1 -181 15 -6 277 -10 650 -10 669 0
667 0 694 49 13 25 13 77 0 102 -27 49 -24 49 -697 48 -345 0 -637 -4 -648 -8z"/>
<path d="M3315 3241 c-77 -32 -76 -152 1 -181 15 -6 277 -10 650 -10 669 0
667 0 694 49 13 25 13 77 0 102 -27 49 -24 49 -697 48 -345 0 -637 -4 -648 -8z"/>
<path d="M3315 2761 c-77 -32 -76 -152 1 -181 36 -14 563 -13 603 1 74 26 80
138 10 175 -22 11 -85 14 -311 13 -156 0 -292 -4 -303 -8z"/>
<path d="M4295 2759 c-34 -20 -55 -52 -55 -87 0 -44 14 -68 52 -88 79 -41 168
38 134 119 -7 18 -20 38 -29 45 -22 18 -78 24 -102 11z"/>
<path d="M4285 1947 c-149 -59 -230 -202 -195 -347 l13 -52 -288 -288 -287
-287 -46 13 c-58 18 -119 18 -169 0 l-40 -14 -192 192 -191 192 10 54 c27 144
-63 293 -208 341 -50 17 -169 7 -217 -18 -125 -65 -192 -216 -155 -349 l13
-46 -183 -183 -182 -182 -47 14 c-100 31 -236 -8 -306 -89 -102 -120 -97 -292
11 -403 168 -174 456 -87 505 152 11 51 10 70 -4 124 l-16 64 179 179 179 180
43 -13 c58 -18 155 -16 202 4 l39 17 185 -185 185 -185 -13 -46 c-7 -27 -11
-72 -8 -109 12 -142 117 -252 260 -273 191 -26 365 157 327 345 -6 31 -11 62
-12 68 -1 7 126 141 282 298 l283 284 37 -15 c20 -9 66 -16 103 -16 116 0 218
65 270 171 34 68 33 187 -2 255 -32 62 -107 130 -167 150 -54 18 -154 20 -198
3z m146 -197 c30 -16 52 -68 45 -105 -17 -90 -142 -105 -182 -22 -20 43 -13
80 23 113 28 26 79 32 114 14z m-1762 -211 c33 -31 44 -66 30 -106 -14 -42
-47 -65 -96 -65 -50 0 -93 46 -93 98 0 78 103 125 159 73z m-767 -768 c81 -72
6 -195 -98 -161 -77 26 -85 136 -13 176 39 22 76 17 111 -15z m1559 1 c78 -70
8 -193 -93 -162 -61 18 -89 99 -50 146 41 51 97 57 143 16z"/>
<path d="M893 1604 c-68 -34 -66 -136 3 -169 68 -32 139 11 139 86 0 72 -76
117 -142 83z"/>
</g>
</svg>
